<?xml version="1.0" encoding="iso-8859-1"?>

<svg version="1.1" id="Layer_1" xmlns="http://www.w3.org/2000/svg" xmlns:xlink="http://www.w3.org/1999/xlink" x="0px" y="0px"
	 viewBox="0 0 512 512" style="enable-background:new 0 0 512 512;" xml:space="preserve">
<path style="fill:#FFE000;" d="M473.103,371.851c0.176-0.611,0.338-1.228,0.479-1.85c0.047-0.201,0.089-0.401,0.131-0.603
	c0.113-0.541,0.213-1.085,0.3-1.634c0.037-0.236,0.076-0.473,0.11-0.711c0.076-0.545,0.131-1.093,0.18-1.643
	c0.021-0.225,0.047-0.447,0.063-0.674c0.052-0.767,0.084-1.537,0.083-2.313l0,0l0,0v-0.006l-0.006-40.904v-0.001l-0.005-26.204
	v-0.002l-0.001-4.213l-0.004-25.574l0,0l-0.008-48.824l-0.005-26.204l-0.006-40.985c-0.001-2.996-0.409-5.93-1.161-8.75
	c-0.405-1.517-0.915-2.997-1.521-4.435c-2.477-5.877-6.574-11.016-11.924-14.74c-0.784-0.545-1.584-1.071-2.421-1.554l-22.874-13.2
	L413.1,94.467l-17.24-9.949l-65.921-38.046l-25.717-14.842l-19.288-11.132l-11.953-6.898c-10.533-6.078-23.509-6.077-34.04,0.006
	l-11.872,6.857l-19.288,11.14l-25.717,14.854l0,0l-65.915,38.07l-28.89,16.686l-21.408,12.365l-11.282,6.517
	c-0.813,0.469-1.59,0.979-2.353,1.507c-3.272,2.266-6.072,5.068-8.331,8.236c-1.517,2.128-2.781,4.423-3.774,6.841
	c-1.654,4.031-2.557,8.399-2.557,12.899l0.007,40.912l0.005,26.204l0.012,73.738l0.001,4.011v0.849v0.002v0.013l0,0v0.005l0,0
	l0.005,26.2l0,0v1.864l0.002,12.617l0.004,26.497v0.006l0,0c0.001,0.773,0.033,1.539,0.084,2.304
	c0.016,0.224,0.042,0.446,0.063,0.669c0.048,0.55,0.105,1.096,0.178,1.638c0.033,0.236,0.072,0.471,0.11,0.706
	c0.086,0.546,0.184,1.087,0.298,1.626c0.042,0.201,0.084,0.403,0.13,0.603c0.14,0.615,0.298,1.222,0.471,1.825
	c0.033,0.113,0.061,0.227,0.095,0.34c0.909,3.043,2.239,5.93,3.941,8.589c0,0,0,0.001,0.001,0.002l0.001,0.001
	c1.172,1.832,2.517,3.551,4.026,5.137c0.049,0.052,0.098,0.106,0.147,0.158c0.71,0.735,1.454,1.441,2.233,2.112
	c0.125,0.11,0.254,0.215,0.382,0.322c0.785,0.661,1.594,1.3,2.444,1.89c0.784,0.545,1.584,1.07,2.421,1.554l22.552,13.015
	l21.414,12.359l17.561,10.135l91.644,52.89l19.288,11.132l11.953,6.898c10.533,6.078,23.509,6.077,34.04-0.006l11.872-6.857
	l19.288-11.14l25.717-14.853l55.554-32.086l10.363-5.985l26.36-15.224l21.408-12.365l13.813-7.978
	c0.813-0.469,1.59-0.979,2.353-1.507c0.85-0.59,1.659-1.226,2.445-1.883c0.129-0.107,0.259-0.213,0.386-0.322
	c0.779-0.673,1.526-1.375,2.236-2.11c0.046-0.048,0.09-0.098,0.136-0.146c3.725-3.891,6.475-8.609,8.019-13.765
	C473.045,372.067,473.073,371.958,473.103,371.851z"/>
<polygon style="fill:#FF7900;" points="233.356,71.651 218.26,80.371 198.131,91.997 198.131,91.997 161.472,113.169 
	161.472,398.834 218.26,431.607 233.356,440.321 237.917,442.954 237.917,69.016 "/>
<path style="fill:#134923;" d="M146.541,121.794l-22.612,13.059l-16.754,9.678l-8.83,5.099c-0.635,0.368-1.244,0.767-1.842,1.18
	c-2.561,1.775-4.752,3.966-6.521,6.446c-1.186,1.665-2.176,3.462-2.952,5.355c-1.296,3.156-2.002,6.574-2.002,10.096l0.006,32.021
	l0.004,20.51l0.01,57.713l0.001,3.139v0.665v0.001v0.011l0,0v0.004l0,0l0.002,20.506l0,0v1.457l0.002,9.874l0.004,20.739v0.005l0,0
	c0,0.604,0.025,1.206,0.066,1.803c0.012,0.176,0.033,0.348,0.048,0.524c0.037,0.429,0.082,0.857,0.141,1.281
	c0.025,0.186,0.055,0.369,0.084,0.553c0.069,0.427,0.145,0.851,0.233,1.272c0.033,0.158,0.068,0.315,0.102,0.473
	c0.11,0.481,0.233,0.956,0.369,1.429c0.025,0.088,0.048,0.177,0.076,0.266c0.711,2.381,1.752,4.641,3.084,6.722l0.001,0.001
	l0.001,0.001c0.916,1.433,1.97,2.78,3.15,4.019c0.039,0.041,0.076,0.083,0.117,0.124c0.555,0.576,1.137,1.127,1.746,1.654
	c0.099,0.086,0.199,0.168,0.299,0.251c0.616,0.517,1.248,1.016,1.914,1.48c0.614,0.427,1.239,0.838,1.894,1.215l17.65,10.187
	l16.76,9.672l13.743,7.932l14.94,8.621V113.169L146.541,121.794z"/>
<path style="fill:#BF2300;" d="M426.97,307.275L426.97,307.275l-0.004-20.511v-0.002l-0.001-3.297l-0.002-20.016l-0.007-38.213
	l-0.004-20.51l-0.005-32.078c-0.001-2.345-0.319-4.641-0.908-6.847c-0.317-1.187-0.716-2.346-1.19-3.471
	c-1.938-4.599-5.146-8.622-9.333-11.536c-0.614-0.427-1.239-0.838-1.894-1.215l-17.902-10.333l-16.759-9.672l-13.493-7.786
	L313.871,92.01l-20.129-11.616l-15.096-8.714l-4.562-2.633v373.938l4.562-2.635l15.096-8.72l20.129-11.626l43.479-25.113
	l8.111-4.685l20.631-11.915l16.754-9.678l10.811-6.245c0.635-0.366,1.245-0.766,1.841-1.179c0.667-0.461,1.3-0.958,1.914-1.474
	c0.101-0.083,0.203-0.166,0.301-0.252c0.611-0.526,1.195-1.077,1.752-1.65c0.036-0.037,0.071-0.076,0.107-0.115
	c2.915-3.045,5.068-6.738,6.276-10.775c0.025-0.083,0.047-0.169,0.072-0.252c0.137-0.477,0.264-0.961,0.376-1.448
	c0.035-0.157,0.069-0.315,0.102-0.473c0.088-0.423,0.166-0.85,0.234-1.279c0.03-0.186,0.06-0.37,0.086-0.557
	c0.059-0.427,0.104-0.855,0.141-1.286c0.016-0.176,0.036-0.351,0.049-0.527c0.04-0.6,0.065-1.204,0.065-1.811l0,0v-0.005
	L426.97,307.275z"/>
<path style="fill:#FFE000;" d="M383.914,237.25h-30.627v-14.399c0-8.716-7.067-15.783-15.784-15.783s-15.784,7.067-15.784,15.783
	v55.556h79.573v-23.78C401.292,245.03,393.511,237.25,383.914,237.25z"/>
<path d="M308.809,228.104v50.304c0,4.993-4.047,9.041-9.041,9.041s-9.041-4.048-9.041-9.041v-50.304
	c0-4.993,4.047-9.041,9.041-9.041S308.809,223.11,308.809,228.104z M410.332,254.629v23.78v26.524c0,4.994-4.047,9.041-9.041,9.041
	c-4.994,0-9.041-4.047-9.041-9.041V287.45h-7.526v17.482c0,4.994-4.047,9.041-9.041,9.041s-9.041-4.047-9.041-9.041V287.45h-35.88
	v17.482c0,4.994-4.047,9.041-9.041,9.041s-9.041-4.047-9.041-9.041v-26.524v-55.556c0-13.689,11.137-24.824,24.825-24.824
	s24.825,11.135,24.825,24.824v5.357h21.585C398.48,228.209,410.332,240.06,410.332,254.629z M330.76,269.366h61.489v-14.739
	c0-4.597-3.741-8.337-8.336-8.337h-30.626c-4.994,0-9.041-4.048-9.041-9.041V222.85c0-3.717-3.025-6.741-6.742-6.741
	s-6.742,3.025-6.742,6.741L330.76,269.366L330.76,269.366z M277.584,506.224l184.37-106.487c0.943-0.545,1.89-1.149,2.987-1.907
	c0.987-0.686,2-1.463,3.107-2.389l0.475-0.398c0.986-0.851,1.938-1.749,2.85-2.689l0.153-0.163
	c4.695-4.904,8.205-10.929,10.126-17.35c0.051-0.165,0.098-0.33,0.137-0.481c0.224-0.774,0.427-1.554,0.609-2.344
	c0.058-0.252,0.111-0.504,0.168-0.769c0.142-0.684,0.269-1.372,0.379-2.064l0.019-0.121c0.041-0.257,0.081-0.512,0.121-0.791
	c0.093-0.687,0.168-1.379,0.227-2.063l0.014-0.143c0.025-0.24,0.047-0.479,0.063-0.72c0.072-1.058,0.106-2.019,0.105-2.931
	l-0.035-212.91c0-3.709-0.493-7.437-1.464-11.075c-0.503-1.887-1.15-3.776-1.928-5.623c-3.18-7.543-8.399-13.99-15.091-18.647
	c-1.113-0.775-2.086-1.398-3.066-1.964L277.499,5.768C270.962,1.995,263.515,0,255.965,0c-7.555,0-15.005,1.998-21.547,5.776
	L50.048,112.263c-0.943,0.545-1.89,1.149-2.985,1.906c-4.086,2.831-7.632,6.336-10.545,10.421c-1.911,2.68-3.517,5.592-4.776,8.658
	c-2.146,5.23-3.234,10.724-3.234,16.332l0.036,212.917c0,0.927,0.034,1.882,0.105,2.917c0.017,0.241,0.039,0.48,0.064,0.72
	l0.013,0.129c0.06,0.693,0.133,1.384,0.23,2.095c0.036,0.26,0.076,0.52,0.131,0.863c0.111,0.697,0.236,1.389,0.381,2.08
	c0.054,0.256,0.108,0.51,0.164,0.753c0.177,0.776,0.377,1.544,0.604,2.339c0.04,0.148,0.082,0.297,0.115,0.403
	c1.138,3.811,2.804,7.451,4.952,10.821c0.013,0.019,0.025,0.037,0.036,0.057l0,0c0.002,0.004,0.005,0.007,0.007,0.011
	c1.484,2.319,3.197,4.503,5.051,6.45c0.048,0.052,0.176,0.19,0.227,0.241c0.897,0.929,1.847,1.829,2.816,2.667l0.489,0.412
	c1.098,0.923,2.111,1.703,3.097,2.391c1.115,0.775,2.087,1.397,3.062,1.96L234.5,506.232c6.539,3.773,13.985,5.768,21.534,5.768l0,0
	C263.59,512,271.041,510.002,277.584,506.224z M50.571,375.923c-1.257-1.966-2.231-4.087-2.886-6.281l-0.076-0.269
	c-0.127-0.444-0.244-0.891-0.348-1.354l-0.095-0.44c-0.081-0.389-0.153-0.78-0.219-1.199c0-0.002-0.02-0.122-0.02-0.124
	l-0.059-0.374c-0.054-0.4-0.094-0.804-0.131-1.22l-0.046-0.475c-0.037-0.561-0.063-1.125-0.063-1.7L46.59,149.579
	c0-3.24,0.632-6.427,1.879-9.465c0.732-1.783,1.666-3.474,2.773-5.027c1.696-2.378,3.754-4.415,6.114-6.051
	c0.674-0.465,1.222-0.819,1.731-1.111L243.461,21.434c3.796-2.192,8.12-3.351,12.504-3.351c4.381,0,8.701,1.157,12.495,3.347
	l184.41,106.428c0.527,0.304,1.09,0.667,1.777,1.145c3.881,2.7,6.908,6.446,8.756,10.824c0.452,1.074,0.828,2.169,1.119,3.26
	c0.567,2.124,0.854,4.283,0.854,6.419l0.035,212.931c0.001,0.567-0.025,1.13-0.061,1.664l-0.051,0.518
	c-0.035,0.406-0.076,0.813-0.128,1.193l-0.083,0.533c-0.064,0.404-0.137,0.805-0.218,1.191l-0.096,0.446
	c-0.105,0.457-0.224,0.909-0.362,1.386l-0.063,0.224c-1.13,3.76-3.163,7.25-5.908,10.118l-0.077,0.084
	c-0.515,0.532-1.068,1.052-1.639,1.545l-0.288,0.24c-0.671,0.562-1.259,1.016-1.788,1.383c-0.674,0.465-1.222,0.819-1.731,1.111
	l-184.373,106.49c-3.796,2.193-8.12,3.351-12.504,3.351c-4.381,0-8.703-1.157-12.495-3.347L59.131,384.143
	c-0.526-0.303-1.09-0.668-1.777-1.144c-0.538-0.375-1.108-0.817-1.814-1.41l-0.264-0.221c-0.568-0.491-1.12-1.013-1.574-1.484
	c-0.035-0.037-0.136-0.147-0.172-0.184c-1.085-1.138-2.069-2.391-2.926-3.723C50.595,375.958,50.583,375.941,50.571,375.923z"/>
</svg>